<svg width="735" height="275" viewBox="0 0 735 275" fill="none" xmlns="http://www.w3.org/2000/svg">
<rect width="734.4" height="274.26" fill="white"/>
<path d="M131.547 86.0001V37.3091H137.241L155.272 64.9761L151.695 65.7791L170.748 37.3091H176.442V86.0001H171.186V42.5651H173.522L153.447 70.7431L134.905 43.1491L136.803 40.4481V86.0001H131.547Z" fill="black"/>
<path d="M204.239 86.0001V63.6621L186.062 37.3091H192.413L207.816 60.0851L206.137 59.6471L221.248 37.3091H227.599L208.619 64.9031L209.495 61.5451V86.0001H204.239Z" fill="black"/>
<path d="M40.2144 149.355V195H27.3264V75.6069H69.7494C83.1148 75.6069 93.3178 78.7693 100.358 85.0939C107.518 91.4186 111.098 100.548 111.098 112.481C111.098 124.414 107.518 133.543 100.358 139.868C93.3178 146.193 83.1148 149.355 69.7494 149.355H40.2144ZM40.2144 137.004H68.1384C74.8211 137.004 80.1314 136.288 84.0694 134.856C88.1268 133.424 91.1697 131.515 93.1984 129.128C95.2271 126.622 96.5397 123.937 97.1364 121.073C97.8524 118.209 98.2104 115.345 98.2104 112.481C98.2104 109.617 97.8524 106.753 97.1364 103.889C96.5397 101.025 95.2271 98.3996 93.1984 96.0129C91.1697 93.5069 88.1268 91.5379 84.0694 90.1059C80.1314 88.6739 74.8211 87.9579 68.1384 87.9579H40.2144V137.004Z" fill="black"/>
<path d="M169.06 197.685C155.098 197.685 144.716 193.568 137.914 185.334C131.231 176.981 127.89 165.405 127.89 150.608C127.89 135.095 131.41 123.46 138.451 115.703C145.611 107.946 155.694 104.068 168.702 104.068C178.368 104.068 186.244 106.037 192.33 109.975C198.416 113.794 202.891 119.223 205.755 126.264C208.619 133.185 210.051 141.3 210.051 150.608C210.051 165.286 206.471 176.802 199.311 185.155C192.27 193.508 182.186 197.685 169.06 197.685ZM168.881 185.871C176.16 185.871 181.828 184.32 185.886 181.217C189.943 177.995 192.807 173.759 194.478 168.508C196.268 163.138 197.163 157.171 197.163 150.608C197.163 143.567 196.268 137.481 194.478 132.35C192.688 127.099 189.704 123.042 185.528 120.178C181.47 117.314 175.921 115.882 168.881 115.882C161.721 115.882 156.112 117.433 152.055 120.536C147.997 123.639 145.074 127.815 143.284 133.066C141.613 138.197 140.778 144.045 140.778 150.608C140.778 161.109 142.866 169.642 147.043 176.205C151.219 182.649 158.499 185.871 168.881 185.871Z" fill="black"/>
<path d="M466.06 197.685C452.098 197.685 441.716 193.568 434.914 185.334C428.231 176.981 424.89 165.405 424.89 150.608C424.89 135.095 428.41 123.46 435.451 115.703C442.611 107.946 452.694 104.068 465.702 104.068C475.368 104.068 483.244 106.037 489.33 109.975C495.416 113.794 499.891 119.223 502.755 126.264C505.619 133.185 507.051 141.3 507.051 150.608C507.051 165.286 503.471 176.802 496.311 185.155C489.27 193.508 479.186 197.685 466.06 197.685ZM465.881 185.871C473.16 185.871 478.828 184.32 482.886 181.217C486.943 177.995 489.807 173.759 491.478 168.508C493.268 163.138 494.163 157.171 494.163 150.608C494.163 143.567 493.268 137.481 491.478 132.35C489.688 127.099 486.704 123.042 482.528 120.178C478.47 117.314 472.921 115.882 465.881 115.882C458.721 115.882 453.112 117.433 449.055 120.536C444.997 123.639 442.074 127.815 440.284 133.066C438.613 138.197 437.778 144.045 437.778 150.608C437.778 161.109 439.866 169.642 444.043 176.205C448.219 182.649 455.499 185.871 465.881 185.871Z" fill="black"/>
<path d="M626.06 197.685C612.098 197.685 601.716 193.568 594.914 185.334C588.231 176.981 584.89 165.405 584.89 150.608C584.89 135.095 588.41 123.46 595.451 115.703C602.611 107.946 612.694 104.068 625.702 104.068C635.368 104.068 643.244 106.037 649.33 109.975C655.416 113.794 659.891 119.223 662.755 126.264C665.619 133.185 667.051 141.3 667.051 150.608C667.051 165.286 663.471 176.802 656.311 185.155C649.27 193.508 639.186 197.685 626.06 197.685ZM625.881 185.871C633.16 185.871 638.828 184.32 642.886 181.217C646.943 177.995 649.807 173.759 651.478 168.508C653.268 163.138 654.163 157.171 654.163 150.608C654.163 143.567 653.268 137.481 651.478 132.35C649.688 127.099 646.704 123.042 642.528 120.178C638.47 117.314 632.921 115.882 625.881 115.882C618.721 115.882 613.112 117.433 609.055 120.536C604.997 123.639 602.074 127.815 600.284 133.066C598.613 138.197 597.778 144.045 597.778 150.608C597.778 161.109 599.866 169.642 604.043 176.205C608.219 182.649 615.499 185.871 625.881 185.871Z" fill="black"/>
<path d="M229.583 195V112.839C231.015 112.242 233.759 111.228 237.817 109.796C241.993 108.364 246.946 107.051 252.674 105.858C258.521 104.665 264.547 104.068 270.753 104.068C271.707 104.068 272.662 104.187 273.617 104.426C274.571 104.665 275.526 104.903 276.481 105.142V116.598C273.378 116.24 270.335 116.061 267.352 116.061C264.488 116.061 261.683 116.24 258.939 116.598C256.194 116.837 253.449 117.195 250.705 117.672C247.96 118.149 245.215 118.627 242.471 119.104V195H229.583Z" fill="black"/>
<path d="M330.909 196.432C324.585 196.432 319.274 194.523 314.978 190.704C310.682 186.766 308.534 180.978 308.534 173.341V117.493H292.961V105.679H308.534V80.4399H321.422V105.679H344.513V117.493H321.422V169.224C321.422 174.236 322.198 177.995 323.749 180.501C325.301 183.007 328.463 184.26 333.236 184.26C335.384 184.26 337.473 184.081 339.501 183.723C341.53 183.246 343.201 182.709 344.513 182.112V194.284C342.843 194.881 340.695 195.358 338.069 195.716C335.563 196.193 333.177 196.432 330.909 196.432Z" fill="black"/>
<path d="M375.992 202V124.493H360.598V112.679H375.992V107.846C375.992 101.283 376.708 95.9722 378.14 91.9149C379.691 87.7382 381.66 84.5162 384.047 82.2489C386.433 79.8622 388.939 78.1915 391.565 77.2369C394.19 76.1629 396.696 75.5662 399.083 75.4469C401.469 75.2082 403.379 75.0889 404.811 75.0889C406.481 75.0889 408.033 75.2082 409.465 75.4469C410.897 75.5662 412.209 75.8049 413.403 76.1629V87.6189C412.567 87.3802 411.613 87.2012 410.539 87.0819C409.465 86.9625 408.271 86.9029 406.959 86.9029C404.93 86.9029 402.842 87.0222 400.694 87.2609C398.546 87.4995 396.577 88.2752 394.787 89.5879C392.997 90.7812 391.565 92.8099 390.491 95.6739C389.417 98.4185 388.88 102.416 388.88 107.667V112.679H413.403V124.493H388.88V202H375.992Z" fill="black"/>
<path d="M536.406 205H523.518V81.6689H536.406V205Z" fill="black"/>
<path d="M556.535 202V112.679H569.423V202H556.535ZM555.819 96.7479V82.6069H570.139V96.7479H555.819Z" fill="black"/>
<path fill-rule="evenodd" clip-rule="evenodd" d="M147.009 238H32.9912V235H147.009V238Z" fill="black"/>
<path fill-rule="evenodd" clip-rule="evenodd" d="M644.018 238H530V235H644.018V238Z" fill="black"/>
<path d="M189.546 230.2V251H184.938V230.2C184.938 229.432 184.831 228.621 184.618 227.768C184.447 226.915 184.085 226.104 183.53 225.336C182.975 224.525 182.122 223.885 180.97 223.416C179.818 222.904 178.282 222.648 176.362 222.648C175.039 222.648 173.674 222.755 172.266 222.968C170.858 223.181 169.429 223.501 167.978 223.928V251H163.37V221.624C164.394 221.112 165.439 220.664 166.506 220.28C167.615 219.853 168.725 219.512 169.834 219.256C170.986 219 172.138 218.808 173.29 218.68C174.485 218.552 175.679 218.488 176.874 218.488C179.989 218.488 182.463 218.957 184.298 219.896C186.133 220.792 187.455 222.115 188.266 223.864C189.119 225.613 189.546 227.725 189.546 230.2ZM183.466 222.904C184.874 221.837 186.303 220.984 187.754 220.344C189.205 219.704 190.698 219.235 192.234 218.936C193.813 218.637 195.391 218.488 196.97 218.488C200.085 218.488 202.559 218.957 204.394 219.896C206.229 220.792 207.551 222.115 208.362 223.864C209.215 225.613 209.642 227.725 209.642 230.2V251H205.034V230.2C205.034 229.432 204.927 228.621 204.714 227.768C204.543 226.915 204.181 226.104 203.626 225.336C203.071 224.525 202.218 223.885 201.066 223.416C199.914 222.904 198.378 222.648 196.458 222.648C195.135 222.648 193.77 222.84 192.362 223.224C190.954 223.608 189.525 224.269 188.074 225.208L183.466 222.904Z" fill="#FF9C9D"/>
<path d="M218.689 251V219.064H223.297V251H218.689ZM218.433 213.368V208.312H223.553V213.368H218.433Z" fill="black"/>
<path d="M234.317 251V246.84L253.261 221.624L254.221 223.032H234.765V219.064H257.677V223.096L238.733 248.12V246.904H257.677V251H234.317Z" fill="black"/>
<path d="M277.496 251.96C274.68 251.96 272.269 251.469 270.264 250.488C268.259 249.507 266.723 248.077 265.656 246.2C264.632 244.323 264.12 242.019 264.12 239.288V219.064H268.728V238.264C268.728 241.507 269.432 243.896 270.84 245.432C272.291 246.925 274.509 247.672 277.496 247.672C280.483 247.672 282.68 246.925 284.088 245.432C285.539 243.896 286.264 241.507 286.264 238.264V219.064H290.872V239.288C290.872 243.341 289.699 246.477 287.352 248.696C285.048 250.872 281.763 251.96 277.496 251.96Z" fill="black"/>
<path d="M302.86 231.864L316.876 219.064H322.636L303.884 235.64L302.86 231.864ZM303.884 251H299.276V206.904H303.884V251ZM305.164 231.096L324.94 251H318.796L302.028 234.04L305.164 231.096Z" fill="black"/>
<path d="M332.689 251V219.064H337.297V251H332.689ZM332.433 213.368V208.312H337.553V213.368H332.433Z" fill="black"/>
<path d="M373.795 263.352C373.155 263.352 372.579 263.288 372.067 263.16C371.555 263.032 371.128 262.904 370.787 262.776V258.552C371.086 258.68 371.47 258.808 371.939 258.936C372.408 259.064 372.942 259.128 373.539 259.128C374.99 259.128 376.163 258.723 377.059 257.912C377.955 257.101 378.702 256.013 379.299 254.648C379.939 253.283 380.515 251.768 381.027 250.104V251.96L367.459 219.064H372.707L383.331 246.328H382.371L392.931 219.064H397.539L383.843 254.136C382.862 256.653 381.774 258.573 380.579 259.896C379.427 261.219 378.254 262.115 377.059 262.584C375.907 263.096 374.819 263.352 373.795 263.352Z" fill="black"/>
<path d="M414.496 251.96C411.68 251.96 409.269 251.469 407.264 250.488C405.259 249.507 403.723 248.077 402.656 246.2C401.632 244.323 401.12 242.019 401.12 239.288V219.064H405.728V238.264C405.728 241.507 406.432 243.896 407.84 245.432C409.291 246.925 411.509 247.672 414.496 247.672C417.483 247.672 419.68 246.925 421.088 245.432C422.539 243.896 423.264 241.507 423.264 238.264V219.064H427.872V239.288C427.872 243.341 426.699 246.477 424.352 248.696C422.048 250.872 418.763 251.96 414.496 251.96Z" fill="black"/>
<path d="M435.689 251V219.064H440.297V251H435.689ZM435.433 213.368V208.312H440.553V213.368H435.433Z" fill="black"/>
<path d="M449.401 221.624C450.425 221.112 451.471 220.664 452.537 220.28C453.647 219.853 454.756 219.512 455.865 219.256C457.017 219 458.169 218.808 459.321 218.68C460.516 218.552 461.711 218.488 462.905 218.488C466.02 218.488 468.495 218.957 470.329 219.896C472.164 220.792 473.487 222.115 474.297 223.864C475.151 225.613 475.577 227.725 475.577 230.2V251H470.969V230.2C470.969 229.432 470.863 228.621 470.649 227.768C470.479 226.915 470.116 226.104 469.561 225.336C469.007 224.525 468.153 223.885 467.001 223.416C465.849 222.904 464.313 222.648 462.393 222.648C461.071 222.648 459.705 222.755 458.297 222.968C456.889 223.181 455.46 223.501 454.009 223.928V251H449.401V221.624Z" fill="black"/>
<path d="M497.521 251.96C492.529 251.96 488.817 250.488 486.385 247.544C483.996 244.557 482.801 240.419 482.801 235.128C482.801 229.581 484.06 225.421 486.577 222.648C489.137 219.875 492.743 218.488 497.393 218.488C500.849 218.488 503.665 219.192 505.841 220.6C508.017 221.965 509.617 223.907 510.641 226.424C511.665 228.899 512.177 231.8 512.177 235.128C512.177 240.376 510.897 244.493 508.337 247.48C505.82 250.467 502.215 251.96 497.521 251.96ZM497.457 247.736C500.06 247.736 502.087 247.181 503.537 246.072C504.988 244.92 506.012 243.405 506.609 241.528C507.249 239.608 507.569 237.475 507.569 235.128C507.569 232.611 507.249 230.435 506.609 228.6C505.969 226.723 504.903 225.272 503.409 224.248C501.959 223.224 499.975 222.712 497.457 222.712C494.897 222.712 492.892 223.267 491.441 224.376C489.991 225.485 488.945 226.979 488.305 228.856C487.708 230.691 487.409 232.781 487.409 235.128C487.409 238.883 488.156 241.933 489.649 244.28C491.143 246.584 493.745 247.736 497.457 247.736Z" fill="black"/>
</svg>
